<?xml version="1.0" encoding="UTF-8" standalone="no"?>
<svg
   xmlns:osb="http://www.openswatchbook.org/uri/2009/osb"
   xmlns:dc="http://purl.org/dc/elements/1.1/"
   xmlns:cc="http://creativecommons.org/ns#"
   xmlns:rdf="http://www.w3.org/1999/02/22-rdf-syntax-ns#"
   xmlns:svg="http://www.w3.org/2000/svg"
   xmlns="http://www.w3.org/2000/svg"
   xmlns:sodipodi="http://sodipodi.sourceforge.net/DTD/sodipodi-0.dtd"
   xmlns:inkscape="http://www.inkscape.org/namespaces/inkscape"
   width="207.01807mm"
   height="32.954304mm"
   viewBox="0 0 207.01807 32.954304"
   version="1.1"
   id="svg910"
   sodipodi:docname="banner.svg"
   inkscape:export-filename="C:\Users\Matt\Desktop\peu-research-center\images\assets\banner.png"
   inkscape:export-xdpi="96"
   inkscape:export-ydpi="96"
   inkscape:version="1.0.1 (3bc2e813f5, 2020-09-07)">
  <sodipodi:namedview
     pagecolor="#ffffff"
     bordercolor="#666666"
     borderopacity="1"
     objecttolerance="10"
     gridtolerance="10"
     guidetolerance="10"
     inkscape:pageopacity="0"
     inkscape:pageshadow="2"
     inkscape:window-width="2271"
     inkscape:window-height="1129"
     id="namedview4948"
     showgrid="false"
     inkscape:zoom="0.7"
     inkscape:cx="278.09708"
     inkscape:cy="70.97036"
     inkscape:window-x="840"
     inkscape:window-y="139"
     inkscape:window-maximized="0"
     inkscape:current-layer="svg910" />
  <defs
     id="defs904">
    <linearGradient
       id="linearGradient4205"
       osb:paint="solid">
      <stop
         style="stop-color:#2789bf;stop-opacity:1;"
         offset="0"
         id="stop4203" />
    </linearGradient>
    <linearGradient
       id="linearGradient3923"
       osb:paint="solid">
      <stop
         style="stop-color:#2789bf;stop-opacity:1;"
         offset="0"
         id="stop3921" />
    </linearGradient>
  </defs>
  <metadata
     id="metadata907">
    <rdf:RDF>
      <cc:Work
         rdf:about="">
        <dc:format>image/svg+xml</dc:format>
        <dc:type
           rdf:resource="http://purl.org/dc/dcmitype/StillImage" />
        <dc:title></dc:title>
      </cc:Work>
    </rdf:RDF>
  </metadata>
  <g
     id="layer1"
     transform="matrix(0.50400356,0,0,0.60890082,57.390818,-57.07522)">
    <path
       style="opacity:1;fill:#93cddd;fill-opacity:1;stroke:#ff0000;stroke-width:0;stroke-linecap:butt;stroke-linejoin:miter;stroke-miterlimit:4;stroke-dasharray:none;stroke-opacity:1;paint-order:markers stroke fill"
       d="m 21.12017,132.96122 c 0.818973,-0.57527 2.380731,-1.3379 1.285212,-1.77041 -1.096875,-0.43305 -4.881318,-0.6137 -14.6417139,0.42516 -1.1e-6,0 -2.2e-6,0 -3.3e-6,0 -2.7567451,0.29031 -6.0392837,0.69141 -9.8285553,1.23719 -10.8550425,1.49326 -21.8523435,3.13676 -28.5352835,3.95604 -6.354264,0.77897 -9.390468,0.77478 -2.597865,-1.23897 -17.36722,2.37138 -36.536998,7.68923 -55.345881,12.19813 -3.898812,0.51473 0.991223,-1.31736 7.72585,-3.54044 6.421107,-2.11958 15.171801,-4.76135 17.31141,-5.74078 6.085461,-2.10279 3.919107,-2.13636 -2.963967,-0.80801 -6.925853,1.33661 -16.592804,3.70055 -25.695938,6.30082 -14.009565,3.28031 -20.386475,4.32585 -21.519765,3.61295 -1.12289,-0.70637 2.98615,-3.12024 10.14815,-6.14558 27.009286,-9.14073 46.928535,-13.43441 70.389987,-19.61084 19.771601,-4.48896 25.3361986,-6.51488 20.485799,-6.89839 6.5691062,-1.06678 13.29633121,-1.97802 20.1447763,-2.73884 15.9092157,-1.76503 31.6451267,-2.61312 47.1804587,-3.14087 5.893534,-0.19985 11.658467,-0.35451 17.225972,-0.52528 15.122846,-0.30683 12.972768,0.15225 10.126356,0.41484 -3.900763,0.35987 -11.669879,0.8875 -13.07787,1.18412 8.962982,0.06 18.841074,0.0354 28.136079,-0.0158 11.516212,-0.0748 22.043512,-0.25589 32.952812,-0.4331 7.76334,-0.31176 24.05148,-0.67843 30.43779,-0.76149 7.89143,-0.10264 13.07465,0.056 6.2746,1.25071 -4.04474,1.04492 3.47006,1.37738 15.36615,0.56524 9.43381,-0.62157 19.42414,-1.79168 28.5271,-3.20762 21.87895,-3.33719 45.98665,-8.524322 46.58294,-7.12626 2.65897,-0.15036 10.29776,-1.820129 16.51957,-3.211506 5.86801,-1.312257 10.4029,-2.331819 5.15363,-0.447278 4.08633,-0.681544 10.63356,-2.096809 14.21777,-2.723564 3.35185,-0.586124 4.44833,-0.460961 -3.54251,2.1873 -0.50898,1.209429 -8.15636,4.219308 -17.37693,7.377348 -9.21636,3.1566 -20.0107,6.39302 -26.57819,8.66699 17.50245,-3.56368 43.61295,-10.54363 51.26926,-11.57034 -9.69458,3.67525 -23.99549,8.87524 -43.89869,13.5568 -10.21929,2.42564 -20.70301,4.54858 -31.49105,6.53708 -9.9927,1.8419 -19.79127,3.46224 -24.57915,4.59838 11.85344,-1.50277 21.14841,-2.69249 25.24558,-2.89852 3.55843,-0.17894 3.2967,0.59559 -6.85455,2.60247 -8.45923,1.82438 -20.20214,3.97369 -33.44593,5.33905 -9.40622,0.96507 -18.99683,1.44233 -28.07028,1.3575 -19.68517,0.13829 -38.82155,-0.23259 -59.115035,-0.89222 -10.284447,-0.32479 -16.270202,-0.51604 -25.718118,-0.79388 -2.97822,0.39865 -8.92436,0.79574 -15.91934,1.23066 -9.032933,0.56045 -24.764821,1.52053 -31.909428,1.64102 0,0 -0.0012,1.5e-4 -0.0012,1.5e-4 z"
       id="path4816" />
  </g>
</svg>
